<svg width="45" height="34" viewBox="0 0 45 34" fill="none" xmlns="http://www.w3.org/2000/svg">
<g clip-path="url(#clip0_2_50)">
<path d="M4.176 19.246V9.634H1.116V22H10.134V19.246H4.176ZM16.3236 22.216C19.1316 22.216 21.4896 19.984 21.4896 17.338C21.4896 14.692 19.1316 12.478 16.3236 12.478C13.5156 12.478 11.1576 14.692 11.1576 17.338C11.1576 19.984 13.5156 22.216 16.3236 22.216ZM16.3236 19.678C15.0816 19.678 14.0376 18.598 14.0376 17.338C14.0376 16.078 15.0816 15.016 16.3236 15.016C17.5656 15.016 18.6096 16.078 18.6096 17.338C18.6096 18.598 17.5656 19.678 16.3236 19.678ZM29.6754 12.694V13.828C29.0634 13.036 27.8754 12.478 26.7054 12.478C24.4014 12.478 22.6194 14.296 22.6194 16.888C22.6194 19.48 24.4014 21.316 26.7054 21.316C27.8574 21.316 28.9374 20.83 29.6754 19.984V20.866C29.6754 21.856 28.6494 22.558 27.1194 22.558C26.0574 22.558 24.9774 22.216 24.4014 21.73L23.3754 23.854C24.3294 24.574 25.9134 25.096 27.5874 25.096C30.6114 25.096 32.7354 23.404 32.7354 21.01V12.694H29.6754ZM27.7134 18.778C26.5794 18.778 25.7514 17.986 25.7514 16.888C25.7514 15.79 26.5794 15.016 27.7134 15.016C28.8654 15.016 29.6754 15.79 29.6754 16.888C29.6754 17.986 28.8654 18.778 27.7134 18.778ZM39.5092 22.216C42.3172 22.216 44.6752 19.984 44.6752 17.338C44.6752 14.692 42.3172 12.478 39.5092 12.478C36.7012 12.478 34.3432 14.692 34.3432 17.338C34.3432 19.984 36.7012 22.216 39.5092 22.216ZM39.5092 19.678C38.2672 19.678 37.2232 18.598 37.2232 17.338C37.2232 16.078 38.2672 15.016 39.5092 15.016C40.7512 15.016 41.7952 16.078 41.7952 17.338C41.7952 18.598 40.7512 19.678 39.5092 19.678Z" fill="#5E5C6C"/>
</g>
<defs>
<clipPath id="clip0_2_50">
<rect width="45" height="34" fill="white"/>
</clipPath>
</defs>
</svg>
