<svg width="12" height="12" viewBox="0 0 12 12" fill="none" xmlns="http://www.w3.org/2000/svg">
<g clip-path="url(#clip0_2_179)">
<path d="M12 2.65415C11.5486 2.85103 11.0712 2.98187 10.5825 3.04265C11.0975 2.73712 11.4826 2.25332 11.6648 1.6829C11.1825 1.9689 10.6549 2.17031 10.1048 2.2784C9.76744 1.91823 9.3296 1.66784 8.84813 1.55975C8.36665 1.45165 7.86379 1.49086 7.40489 1.67227C6.94599 1.85368 6.55225 2.16891 6.27483 2.577C5.9974 2.9851 5.84913 3.46719 5.84926 3.96065C5.84926 4.15565 5.86576 4.34315 5.90626 4.52165C4.92757 4.47367 3.97003 4.21966 3.09623 3.77624C2.22244 3.33282 1.45208 2.70996 0.835508 1.9484C0.519622 2.48979 0.421964 3.13123 0.56242 3.7421C0.702876 4.35297 1.07088 4.88734 1.59151 5.2364C1.20208 5.22596 0.820863 5.12204 0.480008 4.9334V4.9604C0.48066 5.52847 0.677007 6.07898 1.036 6.51925C1.39498 6.95951 1.89469 7.26266 2.45101 7.37765C2.24055 7.43312 2.02365 7.46036 1.80601 7.45865C1.6497 7.46143 1.49355 7.44735 1.34026 7.41665C1.49921 7.90492 1.80563 8.33191 2.2173 8.63882C2.62898 8.94573 3.12568 9.11747 3.63901 9.1304C2.76821 9.81143 1.69424 10.1809 0.588758 10.1797C0.387008 10.1797 0.193508 10.1707 7.62939e-06 10.1459C1.12492 10.8708 2.43576 11.2543 3.77401 11.2499C8.30101 11.2499 10.776 7.4999 10.776 4.2494C10.776 4.14065 10.7723 4.03565 10.767 3.9314C11.2522 3.58414 11.6701 3.15131 12 2.65415V2.65415Z" fill="#5E5C6C"/>
</g>
<defs>
<clipPath id="clip0_2_179">
<rect width="12" height="12" fill="white"/>
</clipPath>
</defs>
</svg>
